<svg width="66" height="61" viewBox="0 0 66 61" fill="none" xmlns="http://www.w3.org/2000/svg">
<rect x="65.5" y="60.5" width="65" height="60" rx="11.5" transform="rotate(180 65.5 60.5)" fill="#F4F9F7"/>
<rect x="65.5" y="60.5" width="65" height="60" rx="11.5" transform="rotate(180 65.5 60.5)" stroke="#12B76A"/>
<path d="M33.7071 17.2929C33.3166 16.9024 32.6834 16.9024 32.2929 17.2929L25.9289 23.6569C25.5384 24.0474 25.5384 24.6805 25.9289 25.0711C26.3195 25.4616 26.9526 25.4616 27.3431 25.0711L33 19.4142L38.6569 25.0711C39.0474 25.4616 39.6805 25.4616 40.0711 25.0711C40.4616 24.6805 40.4616 24.0474 40.0711 23.6569L33.7071 17.2929ZM34 43L34 18L32 18L32 43L34 43Z" fill="#12B76A"/>
</svg>
